<svg width="1920" height="1080" viewBox="0 0 1920 1080" fill="none" xmlns="http://www.w3.org/2000/svg">
<rect width="1920" height="1080" fill="#354268"/>
<path d="M1345.02 1081.66C1344.75 1050.78 1347.16 1020.03 1352.24 989.419C1354.92 973.243 1356.12 956.799 1358.26 940.623C1362.54 907.87 1366.68 874.983 1373.1 842.497C1381.93 797.845 1388.48 752.793 1398.78 708.409C1407.74 669.907 1419.78 632.073 1435.96 595.978C1444.65 576.593 1456.02 558.411 1468.45 540.898C1481.83 521.915 1495.6 503.199 1513.25 488.226C1531.58 472.584 1552.04 460.018 1576.11 454.67C1590.02 451.595 1603.26 446.114 1617.56 444.777C1630.8 443.44 1644.04 441.702 1657.42 441.168C1684.97 439.965 1712.51 439.563 1740.2 440.232C1763.47 440.767 1786.74 441.702 1810 444.911C1831.8 447.852 1853.6 450.526 1875.13 454.67C1887.57 457.077 1900.01 459.617 1912.31 462.157C1914.98 462.691 1917.52 463.092 1920.2 462.691C1920.2 666.965 1920.2 871.373 1920.33 1075.65C1920.33 1080.59 1919.26 1081.8 1914.18 1081.8C1724.42 1081.66 1534.65 1081.66 1345.02 1081.66Z" fill="#8FCDD1"/>
<path d="M1193.29 0.133687C1189.81 18.3151 1186.6 36.6303 1180.45 54.277C1170.02 84.3566 1155.31 112.297 1137.65 138.767C1115.72 171.521 1089.78 200.932 1061.43 228.204C1028.66 259.754 993.223 288.23 956.18 314.833C911.513 346.918 864.707 375.928 816.832 402.933C780.992 423.12 744.215 441.836 707.439 460.285C670.797 478.6 634.823 498.386 600.053 520.177C573.039 537.155 546.694 555.203 522.756 576.326C503.9 593.036 486.916 611.218 475.415 633.945C462.845 658.811 462.711 684.211 472.072 710.013C478.357 727.526 487.05 743.969 494.405 761.081C506.575 789.824 512.325 819.101 498.952 849.315C491.062 867.095 477.421 879.528 461.775 890.089C442.919 902.79 422.324 912.281 401.863 921.773C360.674 941.024 319.618 960.542 283.912 989.419C256.764 1011.34 234.699 1037.28 216.779 1067.09C207.284 1083 207.417 1083 188.695 1083C125.841 1083 62.9875 1083 0.133731 1083C0.133731 724.05 0.133731 365.1 0 6.14961C0.267463 1.0695 1.33731 0 6.41911 0C401.997 0.133687 797.708 0.133687 1193.29 0.133687Z" fill="#14788B"/>
</svg>
