<svg width="768" height="1024" viewBox="0 0 768 1024" fill="none" xmlns="http://www.w3.org/2000/svg">
<rect x="768" y="-2" width="1026" height="768" transform="rotate(90 768 -2)" fill="#354268"/>
<path d="M0.0947673 616.014C21.9943 615.825 43.799 617.532 65.5089 621.135C76.9801 623.032 88.6409 623.886 100.112 625.403C123.339 628.438 146.66 631.377 169.698 635.929C201.362 642.189 233.31 646.836 264.785 654.138C292.088 660.492 318.918 669.027 344.514 680.502C358.261 686.666 371.154 694.727 383.573 703.547C397.035 713.03 410.308 722.798 420.926 735.316C432.018 748.308 440.929 762.818 444.721 779.888C446.902 789.751 450.789 799.14 451.737 809.287C452.685 818.676 453.917 828.064 454.296 837.548C455.15 857.083 455.434 876.619 454.96 896.25C454.581 912.751 453.917 929.253 451.642 945.754C449.556 961.212 447.66 976.67 444.721 991.938C443.015 1000.76 441.214 1009.58 439.412 1018.3C439.033 1020.2 438.749 1022 439.033 1023.9C294.174 1023.9 149.22 1023.9 4.36091 1023.99C0.853192 1023.99 -7.04953e-05 1023.23 -7.04953e-05 1019.63C0.0947326 885.06 0.0947673 750.49 0.0947673 616.014Z" fill="#8FCDD1"/>
<path d="M767.905 451C755.012 449.686 742.024 448.473 729.51 446.148C708.179 442.205 688.365 436.646 669.594 429.974C646.368 421.685 625.511 411.879 606.171 401.164C583.798 388.781 563.604 375.387 544.739 361.386C521.986 344.505 501.414 326.815 482.263 308.72C467.948 295.174 454.676 281.275 441.593 267.375C428.605 253.526 414.574 239.93 399.121 226.789C387.081 216.579 374.283 206.622 359.304 197.575C347.453 190.448 334.56 184.029 318.444 179.682C300.81 174.931 282.798 174.881 264.501 178.419C252.081 180.794 240.421 184.08 228.286 186.859C207.903 191.459 187.141 193.632 165.716 188.578C153.107 185.596 144.29 180.44 136.801 174.527C127.795 167.4 121.064 159.617 114.333 151.883C100.681 136.316 86.8397 120.799 66.3622 107.304C50.8145 97.0436 32.4226 88.7039 11.2815 81.9311C-2.75606e-05 78.3425 6.79574e-06 78.393 6.79574e-06 71.3169C6.79574e-06 47.5615 6.79574e-06 23.806 6.79574e-06 0.0505435C254.546 0.0505435 509.093 0.0505435 763.639 0C767.242 0.101087 768 0.505435 768 2.42609C767.905 151.934 767.905 301.492 767.905 451Z" fill="#14788B"/>
</svg>
