<svg width="358" height="83" viewBox="0 0 358 83" fill="none" xmlns="http://www.w3.org/2000/svg">
<g clip-path="url(#clip0)">
<path d="M257.4 54.3C256.3 54.3 255.3 54 254.3 53.5C253.4 52.9 252.6 52.1 252.1 51.1C251.5 50.1 251.3 48.8 251.3 47.4C251.3 45.9 251.6 44.7 252.2 43.6C252.8 42.6 253.6 41.8 254.5 41.2C255.5 40.7 256.5 40.4 257.6 40.4C258.7 40.4 259.7 40.7 260.5 41.3C261.3 41.9 261.9 42.6 262.1 43.6L261.8 43.8V34.6H263.9V54.2H262L261.8 51L262.1 50.8C262 51.6 261.7 52.3 261.2 52.8C260.7 53.3 260.1 53.8 259.5 54C258.9 54.2 258.1 54.3 257.4 54.3ZM257.6 52.5C258.5 52.5 259.2 52.3 259.8 51.9C260.4 51.5 260.9 50.9 261.3 50.1C261.7 49.3 261.8 48.4 261.8 47.3C261.8 46.3 261.6 45.4 261.3 44.7C261 44 260.5 43.4 259.9 43C259.3 42.6 258.6 42.4 257.7 42.4C256.3 42.4 255.3 42.9 254.5 43.8C253.7 44.7 253.4 46 253.4 47.5C253.4 49 253.8 50.3 254.5 51.2C255.2 52.1 256.3 52.5 257.6 52.5Z" fill="#FFFFEE"/>
<path d="M270 38.1C269.5 38.1 269.1 38 268.8 37.7C268.5 37.4 268.4 37 268.4 36.5C268.4 36 268.5 35.6 268.8 35.3C269.1 35 269.5 34.9 270 34.9C270.5 34.9 270.9 35 271.2 35.3C271.5 35.6 271.6 36 271.6 36.5C271.6 37 271.5 37.4 271.2 37.7C270.9 37.9 270.5 38.1 270 38.1ZM271.1 40.7V54.1H269V40.7H271.1Z" fill="#FFFFEE"/>
<path d="M285 40.7H287.3L281.7 54.0999H279.6L274 40.7H276.4L280.6 51.9L285 40.7Z" fill="#FFFFEE"/>
<path d="M295.6 54.3C294.3 54.3 293.2 54 292.2 53.5C291.2 52.9 290.4 52.1 289.9 51.1C289.3 50.1 289.1 48.8 289.1 47.4C289.1 46 289.4 44.7 289.9 43.7C290.5 42.7 291.2 41.9 292.2 41.3C293.2 40.7 294.3 40.5 295.5 40.5C296.8 40.5 297.8 40.8 298.7 41.3C299.6 41.8 300.3 42.6 300.7 43.5C301.1 44.4 301.4 45.5 301.4 46.6C301.4 46.9 301.4 47.2 301.4 47.4C301.4 47.7 301.4 47.9 301.3 48.1H290.5V46.2H300.4L299.3 46.4C299.3 45.1 298.9 44.1 298.2 43.4C297.5 42.7 296.6 42.4 295.4 42.4C294.5 42.4 293.8 42.6 293.1 43C292.4 43.4 292 44 291.6 44.7C291.3 45.5 291.1 46.4 291.1 47.4C291.1 48.5 291.3 49.4 291.6 50.1C292 50.9 292.5 51.5 293.1 51.9C293.7 52.3 294.5 52.5 295.4 52.5C296.4 52.5 297.2 52.3 297.8 51.9C298.4 51.5 298.9 51 299.3 50.4L301 51.4C300.7 52 300.2 52.5 299.7 53C299.2 53.4 298.6 53.8 297.8 54C297.3 54.2 296.5 54.3 295.6 54.3Z" fill="#FFFFEE"/>
<path d="M305.5 54.1V40.7H307.2L307.5 42.9C307.9 42.1 308.4 41.5 309.1 41C309.8 40.6 310.7 40.4 311.7 40.4C311.9 40.4 312.2 40.4 312.5 40.5C312.8 40.5 313 40.6 313.2 40.7L312.8 42.7C312.6 42.6 312.4 42.6 312.2 42.5C312 42.5 311.6 42.4 311.2 42.4C310.6 42.4 310.1 42.6 309.5 42.9C308.9 43.2 308.5 43.7 308.1 44.4C307.7 45.1 307.5 45.9 307.5 46.9V54.1H305.5Z" fill="#FFFFEE"/>
<path d="M320.8 54.3C319.5 54.3 318.3 54 317.2 53.5C316.1 52.9 315.3 52.2 314.7 51.1L316.5 49.8C316.9 50.6 317.5 51.3 318.2 51.7C318.9 52.1 319.9 52.4 321 52.4C321.9 52.4 322.7 52.2 323.2 51.9C323.7 51.5 324 51.1 324 50.5C324 50.1 323.9 49.8 323.6 49.5C323.4 49.2 322.9 49 322.2 48.8L319 48.1C317.7 47.8 316.8 47.4 316.2 46.8C315.6 46.2 315.4 45.4 315.4 44.5C315.4 43.8 315.6 43.1 316 42.5C316.4 41.9 317 41.4 317.8 41C318.6 40.6 319.5 40.5 320.6 40.5C321.9 40.5 323 40.8 324 41.3C324.9 41.8 325.6 42.6 326 43.5L324.2 44.7C323.9 43.9 323.4 43.3 322.7 43C322 42.7 321.3 42.5 320.6 42.5C320 42.5 319.4 42.6 318.9 42.8C318.4 43 318.1 43.2 317.9 43.5C317.7 43.8 317.5 44.2 317.5 44.6C317.5 45 317.6 45.4 317.9 45.7C318.2 46 318.7 46.3 319.4 46.4L322.8 47.1C324.1 47.3 324.9 47.8 325.4 48.3C325.9 48.9 326.2 49.6 326.2 50.4C326.2 51.2 326 52 325.5 52.6C325.1 53.2 324.4 53.7 323.6 54.1C322.7 54.2 321.8 54.3 320.8 54.3Z" fill="#FFFFEE"/>
<path d="M337.9 45.4C337.9 44.4 337.6 43.6 337.1 43.1C336.6 42.6 335.8 42.3 334.8 42.3C333.9 42.3 333.1 42.5 332.4 42.9C331.8 43.3 331.3 44 331 44.8L329.3 43.7C329.7 42.7 330.3 41.9 331.3 41.3C332.3 40.7 333.5 40.4 334.9 40.4C335.9 40.4 336.7 40.6 337.5 40.9C338.3 41.2 338.9 41.7 339.4 42.4C339.9 43.1 340.1 43.9 340.1 45V51.5C340.1 52.1 340.4 52.5 341.1 52.5C341.4 52.5 341.8 52.5 342.1 52.4L342 54.1C341.6 54.3 341.2 54.4 340.6 54.4C340.1 54.4 339.6 54.3 339.2 54.1C338.8 53.9 338.5 53.6 338.2 53.2C337.9 52.8 337.9 52.3 337.9 51.7V51.4L338.4 51.5C338.2 52.2 337.8 52.8 337.3 53.2C336.8 53.6 336.2 54 335.6 54.2C335 54.4 334.3 54.5 333.7 54.5C332.9 54.5 332.2 54.4 331.5 54.1C330.8 53.8 330.3 53.4 329.9 52.9C329.5 52.4 329.3 51.7 329.3 50.9C329.3 49.9 329.6 49.1 330.3 48.4C331 47.7 331.9 47.3 333.1 47.1L338.4 46.1V47.9L334.1 48.8C333.2 49 332.6 49.2 332.1 49.6C331.7 49.9 331.5 50.4 331.5 50.9C331.5 51.5 331.7 51.9 332.2 52.3C332.7 52.7 333.3 52.8 334.1 52.8C334.6 52.8 335.1 52.7 335.6 52.6C336.1 52.5 336.5 52.3 336.9 52C337.3 51.7 337.6 51.4 337.8 51C338 50.6 338.1 50.1 338.1 49.5V45.4H337.9ZM339.8 34.8C339.7 35.6 339.6 36.2 339.4 36.8C339.2 37.3 338.8 37.7 338.4 38C338 38.3 337.5 38.4 336.8 38.4C336.3 38.4 335.9 38.3 335.5 38.1C335.2 37.9 334.9 37.7 334.6 37.5C334.3 37.3 334.1 37.1 333.9 36.9C333.7 36.7 333.4 36.6 333.1 36.6C332.7 36.6 332.4 36.8 332.2 37.1C332 37.4 331.9 37.9 331.8 38.5H330.1C330.2 37.3 330.5 36.4 331 35.8C331.5 35.2 332.2 34.9 333.2 34.9C333.7 34.9 334.1 35 334.4 35.2C334.7 35.4 335.1 35.6 335.3 35.8C335.6 36 335.8 36.2 336 36.4C336.2 36.6 336.5 36.7 336.8 36.7C337.2 36.7 337.5 36.5 337.7 36.2C337.9 35.9 338 35.4 338.1 34.8H339.8Z" fill="#FFFFEE"/>
<path d="M350.8 40.4C352.1 40.4 353.2 40.7 354.2 41.2C355.2 41.8 355.9 42.6 356.5 43.6C357.1 44.6 357.3 45.9 357.3 47.3C357.3 48.7 357 50 356.5 51C356 52 355.2 52.8 354.2 53.4C353.2 54 352.1 54.2 350.8 54.2C349.5 54.2 348.4 53.9 347.4 53.4C346.4 52.8 345.6 52 345.1 51C344.5 50 344.3 48.7 344.3 47.3C344.3 45.9 344.6 44.6 345.1 43.6C345.7 42.6 346.4 41.8 347.4 41.2C348.4 40.7 349.5 40.4 350.8 40.4ZM350.8 42.2C349.9 42.2 349.1 42.4 348.5 42.8C347.9 43.2 347.4 43.8 347 44.6C346.7 45.4 346.5 46.3 346.5 47.3C346.5 48.4 346.7 49.3 347 50C347.3 50.8 347.8 51.4 348.5 51.8C349.2 52.2 349.9 52.4 350.8 52.4C351.7 52.4 352.5 52.2 353.1 51.8C353.7 51.4 354.2 50.8 354.6 50C354.9 49.2 355.1 48.3 355.1 47.3C355.1 46.2 354.9 45.3 354.6 44.6C354.3 43.8 353.8 43.3 353.1 42.8C352.5 42.4 351.7 42.2 350.8 42.2Z" fill="#FFFFEE"/>
<path d="M252.1 80.9V67.5H254L254.1 69.6C254.6 68.8 255.2 68.2 256 67.8C256.8 67.4 257.6 67.2 258.4 67.2C259.3 67.2 260.2 67.4 261.1 67.8C261.9 68.2 262.6 68.9 263 69.8C263.3 69.2 263.7 68.7 264.2 68.3C264.7 67.9 265.3 67.6 265.9 67.4C266.5 67.2 267.1 67.1 267.7 67.1C268.6 67.1 269.4 67.3 270.2 67.6C271 68 271.6 68.5 272.1 69.3C272.6 70.1 272.9 71 272.9 72.2V80.8H270.8V72.4C270.8 71.2 270.5 70.3 269.9 69.8C269.3 69.3 268.5 69 267.6 69C266.9 69 266.2 69.2 265.6 69.5C265 69.8 264.5 70.3 264.1 71C263.7 71.7 263.6 72.5 263.6 73.4V80.7H261.5V72.3C261.5 71.1 261.2 70.2 260.6 69.7C260 69.2 259.2 68.9 258.3 68.9C257.7 68.9 257.1 69.1 256.5 69.4C255.9 69.7 255.4 70.2 255 70.9C254.6 71.6 254.4 72.5 254.4 73.6V80.8H252.1V80.9Z" fill="#FFFFEE"/>
<path d="M285.5 72.2C285.5 71.2 285.2 70.4 284.7 69.9C284.2 69.4 283.4 69.1 282.4 69.1C281.5 69.1 280.7 69.3 280 69.7C279.4 70.1 278.9 70.8 278.6 71.6L276.9 70.5C277.3 69.5 277.9 68.7 278.9 68.1C279.9 67.5 281.1 67.2 282.5 67.2C283.5 67.2 284.3 67.4 285.1 67.7C285.9 68 286.5 68.5 287 69.2C287.5 69.9 287.7 70.7 287.7 71.8V78.3C287.7 78.9 288 79.3 288.7 79.3C289 79.3 289.4 79.3 289.7 79.2L289.6 80.9C289.2 81.1 288.8 81.2 288.2 81.2C287.7 81.2 287.2 81.1 286.8 80.9C286.4 80.7 286.1 80.4 285.8 80C285.5 79.6 285.5 79.1 285.5 78.5V78.2L286 78.3C285.8 79 285.4 79.6 284.9 80C284.4 80.4 283.8 80.8 283.2 81C282.6 81.2 281.9 81.3 281.3 81.3C280.5 81.3 279.8 81.2 279.1 80.9C278.4 80.6 277.9 80.2 277.5 79.7C277.1 79.2 276.9 78.5 276.9 77.7C276.9 76.7 277.2 75.9 277.9 75.2C278.6 74.5 279.5 74.1 280.7 73.9L286 72.9V74.7L281.7 75.6C280.8 75.8 280.2 76 279.7 76.4C279.3 76.7 279.1 77.2 279.1 77.7C279.1 78.3 279.3 78.7 279.8 79.1C280.3 79.5 280.9 79.6 281.7 79.6C282.2 79.6 282.7 79.5 283.2 79.4C283.7 79.3 284.1 79.1 284.5 78.8C284.9 78.5 285.2 78.2 285.4 77.8C285.6 77.4 285.7 76.9 285.7 76.3V72.2H285.5Z" fill="#FFFFEE"/>
<path d="M298.1 81.2C297 81.2 296 80.9 295 80.4C294.1 79.8 293.3 79 292.8 78C292.2 77 292 75.7 292 74.3C292 72.8 292.3 71.6 292.9 70.5C293.5 69.4 294.3 68.7 295.2 68.1C296.2 67.6 297.2 67.3 298.3 67.3C299.4 67.3 300.4 67.6 301.2 68.2C302 68.8 302.6 69.5 302.8 70.5L302.5 70.7V61.5H304.6V81.1H302.7L302.5 77.9L302.8 77.7C302.7 78.5 302.4 79.2 301.9 79.7C301.4 80.2 300.8 80.7 300.2 80.9C299.6 81 298.9 81.2 298.1 81.2ZM298.3 79.3C299.2 79.3 299.9 79.1 300.5 78.7C301.1 78.3 301.6 77.7 302 76.9C302.4 76.1 302.5 75.2 302.5 74.1C302.5 73.1 302.3 72.2 302 71.5C301.7 70.8 301.2 70.2 300.6 69.8C300 69.4 299.3 69.2 298.4 69.2C297 69.2 296 69.7 295.2 70.6C294.4 71.5 294.1 72.8 294.1 74.3C294.1 75.8 294.5 77.1 295.2 78C295.9 78.9 297 79.3 298.3 79.3Z" fill="#FFFFEE"/>
<path d="M314.6 81.2C313.7 81.2 312.9 81 312.2 80.7C311.4 80.4 310.8 79.9 310.3 79.1C309.8 78.4 309.6 77.4 309.6 76.3V67.5H311.7V75.7C311.7 77.1 312 78 312.6 78.5C313.2 79 314 79.3 315.1 79.3C315.6 79.3 316.1 79.2 316.6 79C317.1 78.8 317.5 78.6 317.9 78.2C318.3 77.8 318.6 77.4 318.8 76.8C319 76.2 319.1 75.5 319.1 74.8V67.5H321.2V80.9H319.3L319.2 78.9C318.7 79.7 318.1 80.3 317.3 80.7C316.5 81.1 315.6 81.2 314.6 81.2Z" fill="#FFFFEE"/>
<path d="M326.3 80.9V67.5H328L328.3 69.7C328.7 68.9 329.2 68.3 329.9 67.8C330.6 67.4 331.5 67.2 332.5 67.2C332.7 67.2 333 67.2 333.3 67.3C333.6 67.3 333.8 67.4 334 67.5L333.6 69.5C333.4 69.4 333.2 69.4 333 69.3C332.8 69.3 332.4 69.2 332 69.2C331.4 69.2 330.9 69.4 330.3 69.7C329.7 70 329.3 70.5 328.9 71.2C328.5 71.9 328.3 72.7 328.3 73.7V80.9H326.3Z" fill="#FFFFEE"/>
<path d="M344.7 72.2C344.7 71.2 344.4 70.4 343.9 69.9C343.4 69.4 342.6 69.1 341.6 69.1C340.7 69.1 339.9 69.3 339.2 69.7C338.6 70.1 338.1 70.8 337.8 71.6L336.1 70.5C336.5 69.5 337.1 68.7 338.1 68.1C339.1 67.5 340.3 67.2 341.7 67.2C342.7 67.2 343.5 67.4 344.3 67.7C345.1 68 345.7 68.5 346.2 69.2C346.7 69.9 346.9 70.7 346.9 71.8V78.3C346.9 78.9 347.2 79.3 347.9 79.3C348.2 79.3 348.6 79.3 348.9 79.2L348.8 80.9C348.4 81.1 348 81.2 347.4 81.2C346.9 81.2 346.4 81.1 346 80.9C345.6 80.7 345.3 80.4 345 80C344.7 79.6 344.7 79.1 344.7 78.5V78.2L345.2 78.3C345 79 344.6 79.6 344.1 80C343.6 80.4 343 80.8 342.4 81C341.8 81.2 341.1 81.3 340.5 81.3C339.7 81.3 339 81.2 338.3 80.9C337.6 80.6 337.1 80.2 336.7 79.7C336.3 79.2 336.1 78.5 336.1 77.7C336.1 76.7 336.4 75.9 337.1 75.2C337.8 74.5 338.7 74.1 339.9 73.9L345.2 72.9V74.7L340.9 75.6C340 75.8 339.4 76 338.9 76.4C338.5 76.7 338.3 77.2 338.3 77.7C338.3 78.3 338.5 78.7 339 79.1C339.5 79.5 340.1 79.6 340.9 79.6C341.4 79.6 341.9 79.5 342.4 79.4C342.9 79.3 343.3 79.1 343.7 78.8C344.1 78.5 344.4 78.2 344.6 77.8C344.8 77.4 344.9 76.9 344.9 76.3V72.2H344.7Z" fill="#FFFFEE"/>
<path d="M44 25.9C50.2 25.9 55.3 28.4 59.3 33.5C63.1 38.3 65 44.2 65 51.3C65 59.9 62.4 67.1 57.3 72.8C54.7 75.6 51.7 77.9 48 79.7C43.8 81.7 39.5 82.6 35 82.6C31.5 82.6 27.7 82 23.6 80.7C23.4 80.6 21.6 80 18.3 78.9C16.9 78.4 15.8 78.2 15.1 78.2C12.7 78.2 11.1 79.7 10.2 82.6H9.3V23.1C9.3 19.3 9.1 16.5 8.6 14.8C8 12.7 6.9 11.1 5.3 10C4.1 9.3 2.3 8.8 0.1 8.7L0 7.6C10.7 5.3 20.2 2.8 28.3 0V32.2C33.4 28 38.7 25.9 44 25.9ZM28.3 66C28.3 70.2 28.8 73.2 29.8 75C30.9 76.8 32.5 77.7 34.8 77.7C41.5 77.7 44.9 72.5 44.9 55.2C44.9 46.3 44 42.3 42.1 38.2C40.7 35.1 38.2 33.5 34.8 33.5C32.6 33.5 30.4 34.5 28.3 36.5V66Z" fill="#FFFFEE"/>
<path d="M238 73.1C236.3 74.1 234.8 74.6 233.7 74.6C231.7 74.6 230.4 73.8 229.7 72.3C229.2 71.2 229 68.9 229 65.5V40.7C229 37.8 228.8 35 228.2 33.1C227.7 31.3 226.6 29.8 224.9 28.4C222.5 26.4 219.8 25.4 215.7 25.3C206.4 25 199.1 26.7 195.9 27.6C195.9 27.6 196.6 28.3 197 29.1C197.5 29.9 197.8 30.5 197.8 30.5C198.6 30.2 200.7 29.7 201.7 29.6C204.7 29 207.3 28.3 208.9 32.5C209.5 34.2 209.7 36.9 209.9 43.6V49.2V50.4C195.2 50.3 175 51.6 175 65.7C175 77.1 184 82.6 191.8 82.6C200.9 82.6 208.4 77.9 210.3 73.7C210.8 75.8 211.5 77.4 212.4 78.6C214.4 81.3 217.2 82.6 220.9 82.6C224.6 82.6 228.4 81.3 232.4 78.7C234.2 77.5 236.3 76 238.8 74L238 73.1ZM209.9 66.6C209.1 72.3 202.8 73.6 201.4 73.8C197.7 74.1 194.7 70.7 195.7 62.6C196.6 55.9 203.8 54 209.9 54.2V66.6Z" fill="#FFFFEE"/>
<path d="M186.7 26C186.5 26 186.3 25.9 186.1 25.9C179.1 24.5 171.3 26.9 166.6 30.5C164.1 32.4 160.5 35.8 159.2 40V33.6C155.6 36.3 153.3 30 149 31.8C145.7 33.2 134.7 34.3 134.7 34.3C137.2 34.2 138.6 35.9 139.9 36.5C141.2 37 140.9 51.9 140.9 55.7V67.4C140.9 69.9 140.8 71.7 140.7 72.8C140.5 75.1 140.1 76.7 139.3 77.7C138.2 79.1 135.9 79.9 132.3 80.1V81.2H168.6V80.1C166.4 80 164.7 79.7 163.7 79.3C161.9 78.6 160.8 77.2 160.4 75.1C160.1 73.5 160 70.9 160 67.3V53.9C160 49.6 159.9 47.4 160.2 45C160.4 43.3 161.1 41.6 162.1 40.1C165.7 34.8 172.1 33.4 175.1 33.4C174.8 34.4 174.6 35.4 174.6 36.5C174.6 42.3 179.3 47.1 185.2 47.1C191 47.1 195.8 42.4 195.8 36.5C195.7 31.2 191.8 26.8 186.7 26Z" fill="#FFFFEE"/>
<path d="M159.2 33.6C155.8 24 137.7 25.4 123.7 33.6C114.5 39 113.7 41.6 108.8 44C93.9001 51.3 89.6001 39.4 94.2001 32.2L90.1001 32.8V46.7C93.4001 51 101.1 51.3 106 50C108.1 49.5 110.7 48.1 111.6 47.6C116.5 45.1 121.7 40.1 126.4 37.5C137.2 31.6 141.4 35 141 45.5C140.9 47.2 141.6 52.8 141.7 56.7L158.8 58C158.7 40.7 159.2 33.6 159.2 33.6Z" fill="#FFFFEE"/>
<path d="M121.7 34.8C118 37.1 113.5 40.8 113.5 40.8C111.5 42.5 109.4 43.6 108.4 44.1C108.6 46.9 108.7 50.3 108.7 54.3C108.7 65.8 107.9 70.3 106.2 73.7C104.8 76.6 102.6 78.1 99.7999 78.1C97.1999 78.1 95.1999 76.9 93.7999 74.6C91.7999 71.4 90.7999 66.5 90.7999 54.1C90.7999 42.5 91.5999 37 93.2999 33.6C94.6999 30.7 96.8999 29.2 99.6999 29.2C102.3 29.2 104.3 30.4 105.7 32.7C106.8 34.4 107.5 36.9 108 40.7C110 39.4 112.8 37.2 114.4 35.9C115.8 34.8 117.9 33.3 119 32.5C113.5 28.1 107 25.9 99.5999 25.9C92.0999 25.9 85.4999 28.3 79.6999 33C73.0999 38.4 69.8999 45.5 69.8999 54.2C69.8999 62.7 73.1999 69.8 79.6999 75.4C85.2999 80.2 91.9999 82.5 99.5999 82.5C107.2 82.5 113.9 80.1 119.5 75.4C126.1 69.8 129.3 62.9 129.3 54.6C129.6 46.7 127 40.1 121.7 34.8Z" fill="#FFFFEE"/>
</g>
<defs>
<clipPath id="clip0">
<rect width="357.3" height="82.6" fill="white"/>
</clipPath>
</defs>
</svg>
